<svg xmlns="http://www.w3.org/2000/svg" viewBox="0 0 640 400" font-family="system-ui,-apple-system,sans-serif">
<rect width="640" height="400" fill="#fdfdfb"/>
<path d="M 5.2 6.1 L 633.6 6.3 L 634.4 392.6 L 4.4 395.1 Z" fill="none" stroke="#5b5b56" stroke-width="1.6" stroke-linejoin="round"/>
<path d="M 5.2 5.1 L 635.6 5.9 L 635.1 37.9 L 6.4 36.9 Z" fill="#f3f2ec" stroke="#5b5b56" stroke-width="1.3" stroke-linejoin="round"/>
<text x="20" y="27" font-size="12" fill="#3c3c38" text-anchor="start" font-weight="600">TenderTrace</text>
<text x="120" y="27" font-size="11" fill="#6b6b64" text-anchor="start">/  Review queue (extraction)</text>
<path d="M 576.4 14.2 L 622.1 13.8 L 622.5 29.6 L 576.8 31.3 Z" fill="#eef0ea" stroke="#5b5b56" stroke-width="1.3" stroke-linejoin="round"/>
<text x="599" y="26" font-size="9" fill="#6b6b64" text-anchor="middle">user</text>
<path d="M 23.4 46.5 L 73.0 47.9 L 72.5 64.2 L 24.7 64.3 Z" fill="#ece7f7" stroke="#9a9a92" stroke-width="1" stroke-linejoin="round"/>
<text x="29" y="59" font-size="9" fill="#3c3489" text-anchor="start">All 212</text>
<path d="M 89.7 49.0 L 175.4 49.4 L 176.8 61.7 L 88.8 62.1 Z" fill="#faeeda" stroke="#9a9a92" stroke-width="1" stroke-linejoin="round"/>
<text x="95" y="59" font-size="9" fill="#854f0b" text-anchor="start">Ambiguities 31</text>
<text x="560" y="58" font-size="10" fill="#6b6b64" text-anchor="end">148 / 212</text>
<path d="M 25.5 71.8 L 314.4 71.4 L 314.0 371.6 L 23.5 372.3 Z" fill="none" stroke="#5b5b56" stroke-width="1.3" stroke-linejoin="round"/>
<text x="36" y="92" font-size="9" fill="#6b6b64" text-anchor="start">Leistungsbeschreibung.pdf  ·  p. 14</text>
<path d="M 37.3 110.6 L 233.3 111.1" stroke="#c3c2ba" stroke-width="2" fill="none" stroke-linecap="round"/>
<path d="M 36.5 117.9 L 273.8 120.5" stroke="#c3c2ba" stroke-width="2" fill="none" stroke-linecap="round"/>
<path d="M 36.2 128.7 L 263.0 129.1" stroke="#c3c2ba" stroke-width="2" fill="none" stroke-linecap="round"/>
<path d="M 35.3 135.6 L 232.0 138.6" stroke="#c3c2ba" stroke-width="2" fill="none" stroke-linecap="round"/>
<path d="M 37.0 145.7 L 181.2 145.3" stroke="#c3c2ba" stroke-width="2" fill="none" stroke-linecap="round"/>
<path d="M 34.9 153.2 L 290.5 152.4 L 290.5 174.7 L 33.5 175.2 Z" fill="#fdf3d8" stroke="#ba7517" stroke-width="1.3" stroke-linejoin="round"/>
<path d="M 36.0 191.6 L 271.0 188.6" stroke="#c3c2ba" stroke-width="2" fill="none" stroke-linecap="round"/>
<path d="M 34.5 198.0 L 233.2 199.4" stroke="#c3c2ba" stroke-width="2" fill="none" stroke-linecap="round"/>
<path d="M 34.5 209.2 L 188.5 209.5" stroke="#c3c2ba" stroke-width="2" fill="none" stroke-linecap="round"/>
<path d="M 35.6 216.9 L 263.2 217.5" stroke="#c3c2ba" stroke-width="2" fill="none" stroke-linecap="round"/>
<path d="M 36.2 226.4 L 234.5 226.0" stroke="#c3c2ba" stroke-width="2" fill="none" stroke-linecap="round"/>
<path d="M 36.7 234.2 L 216.0 236.5" stroke="#c3c2ba" stroke-width="2" fill="none" stroke-linecap="round"/>
<path d="M 36.2 242.4 L 225.3 244.3" stroke="#c3c2ba" stroke-width="2" fill="none" stroke-linecap="round"/>
<path d="M 36.4 253.4 L 174.1 253.4" stroke="#c3c2ba" stroke-width="2" fill="none" stroke-linecap="round"/>
<path d="M 36.6 261.5 L 220.8 262.8" stroke="#c3c2ba" stroke-width="2" fill="none" stroke-linecap="round"/>
<path d="M 34.6 271.6 L 177.2 270.2" stroke="#c3c2ba" stroke-width="2" fill="none" stroke-linecap="round"/>
<path d="M 36.3 279.4 L 218.7 279.4" stroke="#c3c2ba" stroke-width="2" fill="none" stroke-linecap="round"/>
<path d="M 36.3 288.4 L 210.0 289.9" stroke="#c3c2ba" stroke-width="2" fill="none" stroke-linecap="round"/>
<text x="340" y="66" font-size="10" fill="#3c3c38" text-anchor="start" font-weight="600">REQ card</text>
<path d="M 338.5 72.2 L 612.8 71.4 L 611.1 223.0 L 339.2 221.0 Z" fill="#ffffff" stroke="#5b5b56" stroke-width="1.3" stroke-linejoin="round"/>
<path d="M 349.8 82.6 L 423.5 81.4 L 424.3 98.1 L 349.8 98.1 Z" fill="#ece7f7" stroke="#9a9a92" stroke-width="1" stroke-linejoin="round"/>
<text x="355" y="93" font-size="9" fill="#3c3489" text-anchor="start">event_driven</text>
<path d="M 436.9 81.5 L 470.1 83.2 L 469.4 96.1 L 436.8 97.1 Z" fill="#fcebeb" stroke="#9a9a92" stroke-width="1" stroke-linejoin="round"/>
<text x="443" y="93" font-size="9" fill="#a32d2d" text-anchor="start">MUSS</text>
<path d="M 351.0 119.1 L 499.3 117.3" stroke="#c3c2ba" stroke-width="2" fill="none" stroke-linecap="round"/>
<path d="M 350.5 128.0 L 559.0 125.8" stroke="#c3c2ba" stroke-width="2" fill="none" stroke-linecap="round"/>
<path d="M 350.9 135.3 L 509.5 135.7" stroke="#c3c2ba" stroke-width="2" fill="none" stroke-linecap="round"/>
<text x="350" y="158" font-size="8.5" fill="#8a8a84" text-anchor="start">quote  ·  section 3.2.1  ·  p.14</text>
<path d="M 349.7 167.7 L 453.1 166.9 L 450.2 184.4 L 351.2 184.6 Z" fill="#faeeda" stroke="#9a9a92" stroke-width="1" stroke-linejoin="round"/>
<text x="355" y="179" font-size="9" fill="#854f0b" text-anchor="start">missing_threshold</text>
<path d="M 349.8 195.4 L 417.6 193.1 L 417.0 214.1 L 350.5 213.1 Z" fill="#ece7f7" stroke="#6b4fbb" stroke-width="1.2" stroke-linejoin="round"/>
<text x="383" y="207" font-size="9.5" fill="#3c3489" text-anchor="middle">A approve</text>
<path d="M 423.3 193.5 L 471.9 192.6 L 473.1 212.3 L 425.0 211.5 Z" fill="#ece7f7" stroke="#6b4fbb" stroke-width="1.2" stroke-linejoin="round"/>
<text x="448" y="207" font-size="9.5" fill="#3c3489" text-anchor="middle">E edit</text>
<path d="M 479.3 194.6 L 539.8 195.3 L 539.7 213.2 L 476.4 213.8 Z" fill="#ece7f7" stroke="#6b4fbb" stroke-width="1.2" stroke-linejoin="round"/>
<text x="508" y="207" font-size="9.5" fill="#3c3489" text-anchor="middle">R reject</text>
<path d="M 532.9 193.4 L 589.1 194.1 L 588.3 214.4 L 534.4 212.5 Z" fill="#ece7f7" stroke="#6b4fbb" stroke-width="1.2" stroke-linejoin="round"/>
<text x="561" y="207" font-size="9.5" fill="#3c3489" text-anchor="middle">M split</text>
<path d="M 339.2 237.2 L 611.9 236.9 L 611.5 295.0 L 340.1 297.0 Z" fill="none" stroke="#5b5b56" stroke-width="1.3" stroke-linejoin="round" stroke-dasharray="5 4"/>
<text x="350" y="258" font-size="9" fill="#8a8a84" text-anchor="start">next card</text>
<path d="M 350.9 271.3 L 493.2 271.0" stroke="#c3c2ba" stroke-width="2" fill="none" stroke-linecap="round"/>
<path d="M 350.4 280.2 L 475.8 278.3" stroke="#c3c2ba" stroke-width="2" fill="none" stroke-linecap="round"/>
<path d="M 339.3 306.1 L 611.8 305.9 L 612.9 364.4 L 338.6 364.8 Z" fill="none" stroke="#5b5b56" stroke-width="1.3" stroke-linejoin="round" stroke-dasharray="5 4"/>
<path d="M 348.6 329.5 L 489.1 326.7" stroke="#c3c2ba" stroke-width="2" fill="none" stroke-linecap="round"/>
<path d="M 349.4 336.4 L 522.2 337.5" stroke="#c3c2ba" stroke-width="2" fill="none" stroke-linecap="round"/>
<path d="M 349.6 345.0 L 529.9 344.8" stroke="#c3c2ba" stroke-width="2" fill="none" stroke-linecap="round"/>
</svg>