<svg xmlns="http://www.w3.org/2000/svg" viewBox="0 0 640 400" font-family="system-ui,-apple-system,sans-serif">
<rect width="640" height="400" fill="#fdfdfb"/>
<path d="M 5.2 4.7 L 633.7 4.9 L 632.6 393.7 L 7.3 395.0 Z" fill="none" stroke="#5b5b56" stroke-width="1.6" stroke-linejoin="round"/>
<path d="M 6.8 5.1 L 634.1 5.3 L 633.0 36.7 L 5.1 39.4 Z" fill="#f3f2ec" stroke="#5b5b56" stroke-width="1.3" stroke-linejoin="round"/>
<text x="20" y="27" font-size="12" fill="#3c3c38" text-anchor="start" font-weight="600">TenderTrace</text>
<text x="120" y="27" font-size="11" fill="#6b6b64" text-anchor="start">/  Compliance matrix</text>
<path d="M 577.1 14.0 L 623.0 12.0 L 621.4 31.4 L 576.7 32.1 Z" fill="#eef0ea" stroke="#5b5b56" stroke-width="1.3" stroke-linejoin="round"/>
<text x="599" y="26" font-size="9" fill="#6b6b64" text-anchor="middle">user</text>
<path d="M 25.2 46.7 L 142.7 48.5 L 142.4 66.0 L 23.9 65.7 Z" fill="#ece7f7" stroke="#6b4fbb" stroke-width="1.2" stroke-linejoin="round"/>
<text x="83" y="61" font-size="9.5" fill="#3c3489" text-anchor="middle">run classification</text>
<path d="M 141.4 49.2 L 194.8 47.4 L 195.9 67.2 L 141.2 68.1 Z" fill="#ece7f7" stroke="#6b4fbb" stroke-width="1.2" stroke-linejoin="round"/>
<text x="167" y="61" font-size="9.5" fill="#3c3489" text-anchor="middle">automap</text>
<path d="M 230.0 49.7 L 283.5 49.8 L 282.1 64.4 L 231.0 63.5 Z" fill="#e1f5ee" stroke="#9a9a92" stroke-width="1" stroke-linejoin="round"/>
<text x="235" y="61" font-size="9" fill="#0f6e56" text-anchor="start">FULL 120</text>
<path d="M 298.5 50.4 L 363.3 50.1 L 363.9 64.5 L 301.6 64.0 Z" fill="#faeeda" stroke="#9a9a92" stroke-width="1" stroke-linejoin="round"/>
<text x="305" y="61" font-size="9" fill="#854f0b" text-anchor="start">PARTIAL 41</text>
<path d="M 381.7 49.0 L 468.0 49.3 L 467.1 65.8 L 381.4 65.2 Z" fill="#fcebeb" stroke="#9a9a92" stroke-width="1" stroke-linejoin="round"/>
<text x="387" y="61" font-size="9" fill="#a32d2d" text-anchor="start">NEEDS_INPUT 18</text>
<path d="M 25.3 78.7 L 442.6 79.1 L 444.8 360.4 L 23.2 359.5 Z" fill="none" stroke="#5b5b56" stroke-width="1.3" stroke-linejoin="round"/>
<path d="M 23.0 107.9 L 442.5 108.6" stroke="#dedcd4" stroke-width="1.1" fill="none" stroke-linecap="round"/>
<path d="M 25.3 137.5 L 444.8 137.5" stroke="#dedcd4" stroke-width="1.1" fill="none" stroke-linecap="round"/>
<path d="M 22.5 163.3 L 445.5 164.9" stroke="#dedcd4" stroke-width="1.1" fill="none" stroke-linecap="round"/>
<path d="M 23.7 193.4 L 444.4 193.0" stroke="#dedcd4" stroke-width="1.1" fill="none" stroke-linecap="round"/>
<path d="M 23.3 219.0 L 443.8 218.8" stroke="#dedcd4" stroke-width="1.1" fill="none" stroke-linecap="round"/>
<path d="M 23.6 249.5 L 443.5 246.4" stroke="#dedcd4" stroke-width="1.1" fill="none" stroke-linecap="round"/>
<path d="M 22.5 274.9 L 444.9 275.6" stroke="#dedcd4" stroke-width="1.1" fill="none" stroke-linecap="round"/>
<path d="M 23.3 302.7 L 445.5 303.8" stroke="#dedcd4" stroke-width="1.1" fill="none" stroke-linecap="round"/>
<path d="M 23.1 330.6 L 442.6 330.9" stroke="#dedcd4" stroke-width="1.1" fill="none" stroke-linecap="round"/>
<path d="M 124.6 78.9 L 122.5 360.0" stroke="#dedcd4" stroke-width="1.1" fill="none" stroke-linecap="round"/>
<path d="M 213.2 81.6 L 212.8 360.1" stroke="#dedcd4" stroke-width="1.1" fill="none" stroke-linecap="round"/>
<path d="M 344.9 79.7 L 345.6 359.9" stroke="#dedcd4" stroke-width="1.1" fill="none" stroke-linecap="round"/>
<text x="34" y="98" font-size="9" fill="#3c3c38" text-anchor="start" font-weight="600">REQ</text>
<text x="134" y="98" font-size="9" fill="#3c3c38" text-anchor="start" font-weight="600">verdict</text>
<text x="224" y="98" font-size="9" fill="#3c3c38" text-anchor="start" font-weight="600">services</text>
<text x="354" y="98" font-size="9" fill="#3c3c38" text-anchor="start" font-weight="600">evidence</text>
<text x="34" y="126" font-size="9" fill="#3c3c38" text-anchor="start">REQ-045</text>
<path d="M 133.2 113.7 L 164.1 113.7 L 164.8 130.2 L 135.1 129.0 Z" fill="#e1f5ee" stroke="#9a9a92" stroke-width="1" stroke-linejoin="round"/>
<text x="139" y="125" font-size="9" fill="#55554f" text-anchor="start">FULL</text>
<path d="M 222.5 113.2 L 287.2 113.1 L 287.1 130.2 L 222.9 127.6 Z" fill="#ece7f7" stroke="#9a9a92" stroke-width="1" stroke-linejoin="round"/>
<text x="229" y="125" font-size="9" fill="#3c3489" text-anchor="start">SVC-012.v3</text>
<path d="M 354.2 125.6 L 427.4 125.3" stroke="#c3c2ba" stroke-width="2" fill="none" stroke-linecap="round"/>
<text x="34" y="154" font-size="9" fill="#3c3c38" text-anchor="start">REQ-046</text>
<path d="M 134.5 142.9 L 166.4 142.0 L 164.3 156.1 L 135.2 158.3 Z" fill="#e1f5ee" stroke="#9a9a92" stroke-width="1" stroke-linejoin="round"/>
<text x="139" y="153" font-size="9" fill="#55554f" text-anchor="start">FULL</text>
<path d="M 225.4 141.5 L 288.5 143.0 L 288.5 158.0 L 224.1 157.5 Z" fill="#ece7f7" stroke="#9a9a92" stroke-width="1" stroke-linejoin="round"/>
<text x="229" y="153" font-size="9" fill="#3c3489" text-anchor="start">SVC-012.v3</text>
<path d="M 353.3 153.4 L 421.4 150.6" stroke="#c3c2ba" stroke-width="2" fill="none" stroke-linecap="round"/>
<text x="34" y="182" font-size="9" fill="#3c3c38" text-anchor="start">REQ-047</text>
<path d="M 135.5 171.5 L 182.3 168.5 L 183.1 183.8 L 135.5 185.5 Z" fill="#faeeda" stroke="#9a9a92" stroke-width="1" stroke-linejoin="round"/>
<text x="139" y="181" font-size="9" fill="#55554f" text-anchor="start">PARTIAL</text>
<path d="M 222.6 168.9 L 288.4 170.2 L 288.8 186.4 L 223.1 183.4 Z" fill="#ece7f7" stroke="#9a9a92" stroke-width="1" stroke-linejoin="round"/>
<text x="229" y="181" font-size="9" fill="#3c3489" text-anchor="start">SVC-012.v3</text>
<path d="M 352.4 181.2 L 426.3 181.0" stroke="#c3c2ba" stroke-width="2" fill="none" stroke-linecap="round"/>
<text x="34" y="210" font-size="9" fill="#3c3c38" text-anchor="start">REQ-048</text>
<path d="M 134.9 199.2 L 171.2 199.2 L 170.0 213.5 L 133.5 214.3 Z" fill="#fcebeb" stroke="#9a9a92" stroke-width="1" stroke-linejoin="round"/>
<text x="139" y="209" font-size="9" fill="#55554f" text-anchor="start">NEEDS</text>
<path d="M 224.9 197.9 L 288.1 196.5 L 286.5 213.3 L 224.0 214.2 Z" fill="#ece7f7" stroke="#9a9a92" stroke-width="1" stroke-linejoin="round"/>
<text x="229" y="209" font-size="9" fill="#3c3489" text-anchor="start">SVC-012.v3</text>
<path d="M 352.8 207.6 L 418.3 208.1" stroke="#c3c2ba" stroke-width="2" fill="none" stroke-linecap="round"/>
<text x="34" y="238" font-size="9" fill="#3c3c38" text-anchor="start">REQ-049</text>
<path d="M 132.4 227.1 L 166.6 224.7 L 165.7 240.6 L 134.9 240.4 Z" fill="#e1f5ee" stroke="#9a9a92" stroke-width="1" stroke-linejoin="round"/>
<text x="139" y="237" font-size="9" fill="#55554f" text-anchor="start">FULL</text>
<path d="M 223.1 226.0 L 289.5 224.7 L 286.8 241.4 L 225.2 241.0 Z" fill="#ece7f7" stroke="#9a9a92" stroke-width="1" stroke-linejoin="round"/>
<text x="229" y="237" font-size="9" fill="#3c3489" text-anchor="start">SVC-012.v3</text>
<path d="M 355.1 236.9 L 410.5 237.2" stroke="#c3c2ba" stroke-width="2" fill="none" stroke-linecap="round"/>
<text x="34" y="266" font-size="9" fill="#3c3c38" text-anchor="start">REQ-050</text>
<path d="M 133.0 253.4 L 166.7 253.8 L 166.6 267.9 L 135.2 268.0 Z" fill="#e1f5ee" stroke="#9a9a92" stroke-width="1" stroke-linejoin="round"/>
<text x="139" y="265" font-size="9" fill="#55554f" text-anchor="start">FULL</text>
<path d="M 222.9 254.0 L 287.5 254.1 L 289.3 269.7 L 222.4 268.4 Z" fill="#ece7f7" stroke="#9a9a92" stroke-width="1" stroke-linejoin="round"/>
<text x="229" y="265" font-size="9" fill="#3c3489" text-anchor="start">SVC-012.v3</text>
<path d="M 354.0 264.7 L 415.4 262.6" stroke="#c3c2ba" stroke-width="2" fill="none" stroke-linecap="round"/>
<text x="34" y="294" font-size="9" fill="#3c3c38" text-anchor="start">REQ-051</text>
<path d="M 133.2 283.1 L 170.5 282.9 L 172.6 297.4 L 134.6 297.4 Z" fill="#fcebeb" stroke="#9a9a92" stroke-width="1" stroke-linejoin="round"/>
<text x="139" y="293" font-size="9" fill="#55554f" text-anchor="start">NON_C</text>
<path d="M 223.4 283.3 L 287.9 283.3 L 287.4 298.2 L 224.9 297.4 Z" fill="#ece7f7" stroke="#9a9a92" stroke-width="1" stroke-linejoin="round"/>
<text x="229" y="293" font-size="9" fill="#3c3489" text-anchor="start">SVC-012.v3</text>
<path d="M 352.9 292.9 L 411.7 292.5" stroke="#c3c2ba" stroke-width="2" fill="none" stroke-linecap="round"/>
<text x="34" y="322" font-size="9" fill="#3c3c38" text-anchor="start">REQ-052</text>
<path d="M 132.8 308.7 L 180.7 311.0 L 180.8 326.3 L 133.6 325.2 Z" fill="#faeeda" stroke="#9a9a92" stroke-width="1" stroke-linejoin="round"/>
<text x="139" y="321" font-size="9" fill="#55554f" text-anchor="start">PARTIAL</text>
<path d="M 223.5 310.4 L 286.7 309.7 L 289.4 324.0 L 224.5 324.4 Z" fill="#ece7f7" stroke="#9a9a92" stroke-width="1" stroke-linejoin="round"/>
<text x="229" y="321" font-size="9" fill="#3c3489" text-anchor="start">SVC-012.v3</text>
<path d="M 352.5 318.5 L 409.1 321.1" stroke="#c3c2ba" stroke-width="2" fill="none" stroke-linecap="round"/>
<text x="34" y="350" font-size="9" fill="#3c3c38" text-anchor="start">REQ-053</text>
<path d="M 135.0 339.0 L 167.1 336.9 L 165.9 353.0 L 134.2 354.4 Z" fill="#e1f5ee" stroke="#9a9a92" stroke-width="1" stroke-linejoin="round"/>
<text x="139" y="349" font-size="9" fill="#55554f" text-anchor="start">FULL</text>
<path d="M 224.8 339.5 L 286.8 338.5 L 288.6 353.8 L 224.4 354.1 Z" fill="#ece7f7" stroke="#9a9a92" stroke-width="1" stroke-linejoin="round"/>
<text x="229" y="349" font-size="9" fill="#3c3489" text-anchor="start">SVC-012.v3</text>
<path d="M 355.4 347.7 L 408.0 349.3" stroke="#c3c2ba" stroke-width="2" fill="none" stroke-linecap="round"/>
<text x="464" y="86" font-size="10" fill="#3c3c38" text-anchor="start" font-weight="600">Evidence panel</text>
<path d="M 464.7 93.4 L 613.1 93.4 L 614.4 361.6 L 465.3 359.7 Z" fill="#ffffff" stroke="#5b5b56" stroke-width="1.3" stroke-linejoin="round"/>
<path d="M 475.0 111.3 L 564.6 110.4" stroke="#c3c2ba" stroke-width="2" fill="none" stroke-linecap="round"/>
<path d="M 474.1 121.6 L 554.2 120.6" stroke="#c3c2ba" stroke-width="2" fill="none" stroke-linecap="round"/>
<path d="M 474.4 128.9 L 591.7 131.5" stroke="#c3c2ba" stroke-width="2" fill="none" stroke-linecap="round"/>
<path d="M 475.3 139.3 L 594.4 137.7" stroke="#c3c2ba" stroke-width="2" fill="none" stroke-linecap="round"/>
<path d="M 473.1 149.4 L 558.9 148.9" stroke="#c3c2ba" stroke-width="2" fill="none" stroke-linecap="round"/>
<path d="M 472.9 167.2 L 601.4 169.4 L 600.9 228.9 L 474.6 228.2 Z" fill="none" stroke="#5b5b56" stroke-width="1.3" stroke-linejoin="round"/>
<path d="M 475.5 167.2 L 602.1 226.9" stroke="#c3c2ba" stroke-width="1.1" fill="none" stroke-linecap="round"/>
<path d="M 600.7 166.5 L 473.4 226.8" stroke="#c3c2ba" stroke-width="1.1" fill="none" stroke-linecap="round"/>
<text x="538" y="201" font-size="9" fill="#8a8a84" text-anchor="middle">service image</text>
<text x="474" y="250" font-size="8.5" fill="#a32d2d" text-anchor="start">scope: excluded</text>
<path d="M 475.6 261.3 L 544.2 262.6" stroke="#c3c2ba" stroke-width="2" fill="none" stroke-linecap="round"/>
<path d="M 474.5 271.4 L 576.3 270.7" stroke="#c3c2ba" stroke-width="2" fill="none" stroke-linecap="round"/>
<path d="M 474.6 278.7 L 567.0 278.0" stroke="#c3c2ba" stroke-width="2" fill="none" stroke-linecap="round"/>
</svg>