<svg xmlns="http://www.w3.org/2000/svg" viewBox="0 0 640 400" font-family="system-ui,-apple-system,sans-serif">
<rect width="640" height="400" fill="#fdfdfb"/>
<path d="M 6.4 6.8 L 634.9 7.4 L 634.8 395.4 L 4.5 393.9 Z" fill="none" stroke="#5b5b56" stroke-width="1.6" stroke-linejoin="round"/>
<path d="M 7.4 6.5 L 635.3 4.8 L 633.9 37.2 L 6.1 38.2 Z" fill="#f3f2ec" stroke="#5b5b56" stroke-width="1.3" stroke-linejoin="round"/>
<text x="20" y="27" font-size="12" fill="#3c3c38" text-anchor="start" font-weight="600">TenderTrace</text>
<text x="120" y="27" font-size="11" fill="#6b6b64" text-anchor="start">/  Response builder</text>
<path d="M 574.4 12.1 L 621.3 14.3 L 622.9 29.9 L 577.0 29.8 Z" fill="#eef0ea" stroke="#5b5b56" stroke-width="1.3" stroke-linejoin="round"/>
<text x="599" y="26" font-size="9" fill="#6b6b64" text-anchor="middle">user</text>
<text x="24" y="58" font-size="11" fill="#3c3c38" text-anchor="start" font-weight="600">Sections</text>
<path d="M 24.4 64.8 L 192.4 67.2 L 193.1 365.1 L 25.5 367.2 Z" fill="none" stroke="#5b5b56" stroke-width="1.3" stroke-linejoin="round"/>
<text x="36" y="88" font-size="9.5" fill="#3c3c38" text-anchor="start">1 Unternehmen</text>
<text x="36" y="112" font-size="9.5" fill="#3c3c38" text-anchor="start">2 Konzept</text>
<text x="46" y="136" font-size="9.5" fill="#3c3c38" text-anchor="start">2.1 Architektur</text>
<text x="46" y="160" font-size="9.5" fill="#3c3489" text-anchor="start">2.2 Export</text>
<text x="36" y="184" font-size="9.5" fill="#3c3c38" text-anchor="start">3 Betrieb</text>
<text x="36" y="208" font-size="9.5" fill="#3c3c38" text-anchor="start">4 Schulung</text>
<text x="214" y="58" font-size="11" fill="#3c3c38" text-anchor="start" font-weight="600">Editor  ·  2.2 Export</text>
<path d="M 213.3 67.5 L 614.1 66.6 L 613.1 367.4 L 214.6 367.5 Z" fill="#ffffff" stroke="#5b5b56" stroke-width="1.3" stroke-linejoin="round"/>
<path d="M 227.4 89.6 L 553.6 88.9" stroke="#c3c2ba" stroke-width="2" fill="none" stroke-linecap="round"/>
<path d="M 227.4 99.3 L 433.8 99.6" stroke="#c3c2ba" stroke-width="2" fill="none" stroke-linecap="round"/>
<path d="M 227.4 109.0 L 474.6 107.4" stroke="#c3c2ba" stroke-width="2" fill="none" stroke-linecap="round"/>
<path d="M 228.7 115.6 L 496.8 115.5" stroke="#c3c2ba" stroke-width="2" fill="none" stroke-linecap="round"/>
<path d="M 228.8 129.1 L 382.3 128.9 L 383.4 143.3 L 226.4 141.5 Z" fill="#ece7f7" stroke="#9a9a92" stroke-width="1" stroke-linejoin="round"/>
<text x="233" y="139" font-size="9" fill="#3c3489" text-anchor="start">trace: REQ-047 | SVC-012.v3</text>
<path d="M 229.5 159.0 L 452.9 161.4" stroke="#c3c2ba" stroke-width="2" fill="none" stroke-linecap="round"/>
<path d="M 227.5 168.5 L 561.7 169.9" stroke="#c3c2ba" stroke-width="2" fill="none" stroke-linecap="round"/>
<path d="M 228.8 179.0 L 442.7 176.5" stroke="#c3c2ba" stroke-width="2" fill="none" stroke-linecap="round"/>
<path d="M 227.4 188.7 L 425.5 190.4 L 427.3 207.5 L 227.4 208.1 Z" fill="#fcebeb" stroke="#a32d2d" stroke-width="1.3" stroke-linejoin="round"/>
<text x="232" y="203" font-size="8.5" fill="#a32d2d" text-anchor="start">[MISSING: Preisblatt — Vertrieb]</text>
<path d="M 227.4 225.0 L 469.6 224.9" stroke="#c3c2ba" stroke-width="2" fill="none" stroke-linecap="round"/>
<path d="M 229.6 233.9 L 523.8 236.6" stroke="#c3c2ba" stroke-width="2" fill="none" stroke-linecap="round"/>
<path d="M 227.7 243.2 L 503.1 245.0" stroke="#c3c2ba" stroke-width="2" fill="none" stroke-linecap="round"/>
<path d="M 227.7 251.6 L 492.9 251.5" stroke="#c3c2ba" stroke-width="2" fill="none" stroke-linecap="round"/>
<path d="M 228.0 265.1 L 312.4 264.7 L 315.0 279.4 L 228.9 277.7 Z" fill="#ece7f7" stroke="#9a9a92" stroke-width="1" stroke-linejoin="round"/>
<text x="233" y="275" font-size="9" fill="#3c3489" text-anchor="start">trace: REQ-052</text>
<path d="M 227.8 328.9 L 318.5 329.3 L 317.3 350.6 L 229.1 350.5 Z" fill="#ece7f7" stroke="#6b4fbb" stroke-width="1.2" stroke-linejoin="round"/>
<text x="273" y="343" font-size="9.5" fill="#3c3489" text-anchor="middle">draft section</text>
<path d="M 319.9 330.0 L 398.5 329.9 L 397.1 348.7 L 318.9 348.6 Z" fill="#ece7f7" stroke="#6b4fbb" stroke-width="1.2" stroke-linejoin="round"/>
<text x="359" y="343" font-size="9.5" fill="#3c3489" text-anchor="middle">export DOCX</text>
</svg>