<svg xmlns="http://www.w3.org/2000/svg" viewBox="0 0 640 400" font-family="system-ui,-apple-system,sans-serif">
<rect width="640" height="400" fill="#fdfdfb"/>
<path d="M 5.4 4.9 L 634.5 4.6 L 634.1 393.6 L 4.6 394.0 Z" fill="none" stroke="#5b5b56" stroke-width="1.6" stroke-linejoin="round"/>
<path d="M 4.5 5.8 L 632.6 4.7 L 633.8 39.0 L 4.8 37.1 Z" fill="#f3f2ec" stroke="#5b5b56" stroke-width="1.3" stroke-linejoin="round"/>
<text x="20" y="27" font-size="12" fill="#3c3c38" text-anchor="start" font-weight="600">TenderTrace</text>
<text x="120" y="27" font-size="11" fill="#6b6b64" text-anchor="start">/  Catalog import wizard</text>
<path d="M 576.4 14.4 L 622.2 12.7 L 623.5 29.5 L 577.1 30.3 Z" fill="#eef0ea" stroke="#5b5b56" stroke-width="1.3" stroke-linejoin="round"/>
<text x="599" y="26" font-size="9" fill="#6b6b64" text-anchor="middle">user</text>
<path d="M 22.9 46.8 L 76.6 49.0 L 76.2 63.3 L 24.4 62.6 Z" fill="#eef0ea" stroke="#9a9a92" stroke-width="1" stroke-linejoin="round"/>
<text x="29" y="59" font-size="9" fill="#55554f" text-anchor="start">1 Upload</text>
<path d="M 134.2 46.6 L 229.0 47.1 L 231.0 62.8 L 133.4 63.3 Z" fill="#ece7f7" stroke="#9a9a92" stroke-width="1" stroke-linejoin="round"/>
<text x="139" y="59" font-size="9" fill="#3c3489" text-anchor="start">2 Review entries</text>
<path d="M 243.9 47.4 L 303.5 48.6 L 301.8 63.2 L 244.1 64.2 Z" fill="#eef0ea" stroke="#9a9a92" stroke-width="1" stroke-linejoin="round"/>
<text x="249" y="59" font-size="9" fill="#55554f" text-anchor="start">3 Publish</text>
<text x="24" y="90" font-size="10" fill="#3c3c38" text-anchor="start" font-weight="600">Converted preview (docx → md + images)</text>
<path d="M 24.7 97.3 L 305.5 96.8 L 303.7 366.8 L 22.9 366.0 Z" fill="none" stroke="#5b5b56" stroke-width="1.3" stroke-linejoin="round"/>
<path d="M 36.5 118.8 L 172.0 119.2" stroke="#c3c2ba" stroke-width="2" fill="none" stroke-linecap="round"/>
<path d="M 36.6 127.3 L 198.4 126.9" stroke="#c3c2ba" stroke-width="2" fill="none" stroke-linecap="round"/>
<path d="M 37.4 135.9 L 249.2 134.6" stroke="#c3c2ba" stroke-width="2" fill="none" stroke-linecap="round"/>
<path d="M 36.5 146.6 L 236.4 144.3" stroke="#c3c2ba" stroke-width="2" fill="none" stroke-linecap="round"/>
<path d="M 35.6 158.5 L 144.5 157.9 L 144.9 212.8 L 34.6 214.9 Z" fill="none" stroke="#5b5b56" stroke-width="1.3" stroke-linejoin="round"/>
<path d="M 34.8 157.2 L 145.7 215.2" stroke="#c3c2ba" stroke-width="1.1" fill="none" stroke-linecap="round"/>
<path d="M 144.7 157.8 L 36.2 215.2" stroke="#c3c2ba" stroke-width="1.1" fill="none" stroke-linecap="round"/>
<text x="91" y="189" font-size="9" fill="#8a8a84" text-anchor="middle">img-0002</text>
<path d="M 37.2 225.3 L 246.4 225.5" stroke="#c3c2ba" stroke-width="2" fill="none" stroke-linecap="round"/>
<path d="M 37.5 233.9 L 251.8 234.1" stroke="#c3c2ba" stroke-width="2" fill="none" stroke-linecap="round"/>
<path d="M 36.0 244.3 L 189.6 242.4" stroke="#c3c2ba" stroke-width="2" fill="none" stroke-linecap="round"/>
<path d="M 35.6 253.2 L 209.7 253.6" stroke="#c3c2ba" stroke-width="2" fill="none" stroke-linecap="round"/>
<path d="M 36.4 262.6 L 216.1 263.3" stroke="#c3c2ba" stroke-width="2" fill="none" stroke-linecap="round"/>
<path d="M 37.2 272.0 L 242.5 270.7" stroke="#c3c2ba" stroke-width="2" fill="none" stroke-linecap="round"/>
<path d="M 36.4 278.6 L 176.6 279.1" stroke="#c3c2ba" stroke-width="2" fill="none" stroke-linecap="round"/>
<path d="M 35.5 287.6 L 182.0 287.9" stroke="#c3c2ba" stroke-width="2" fill="none" stroke-linecap="round"/>
<text x="330" y="90" font-size="10" fill="#3c3c38" text-anchor="start" font-weight="600">Proposed entries</text>
<path d="M 328.7 97.6 L 612.5 99.2 L 614.4 216.9 L 329.2 217.5 Z" fill="#ffffff" stroke="#5b5b56" stroke-width="1.3" stroke-linejoin="round"/>
<text x="342" y="116" font-size="10" fill="#3c3c38" text-anchor="start" font-weight="600">Betrieb &amp; SLA</text>
<path d="M 341.6 122.8 L 450.3 125.6 L 449.1 138.9 L 340.7 137.7 Z" fill="#faeeda" stroke="#9a9a92" stroke-width="1" stroke-linejoin="round"/>
<text x="347" y="135" font-size="9" fill="#854f0b" text-anchor="start">update_of: SVC-004</text>
<path d="M 341.2 157.1 L 505.8 154.5" stroke="#c3c2ba" stroke-width="2" fill="none" stroke-linecap="round"/>
<path d="M 342.1 163.9 L 565.4 163.5" stroke="#c3c2ba" stroke-width="2" fill="none" stroke-linecap="round"/>
<text x="342" y="182" font-size="8.5" fill="#6b6b64" text-anchor="start">scope: 4 incl / 2 excl / 1 prereq</text>
<path d="M 342.1 193.5 L 397.8 192.6 L 395.8 210.6 L 340.9 211.9 Z" fill="#ece7f7" stroke="#6b4fbb" stroke-width="1.2" stroke-linejoin="round"/>
<text x="369" y="205" font-size="9.5" fill="#3c3489" text-anchor="middle">approve</text>
<path d="M 408.1 192.9 L 485.3 191.1 L 486.8 212.6 L 409.1 212.0 Z" fill="#ece7f7" stroke="#6b4fbb" stroke-width="1.2" stroke-linejoin="round"/>
<text x="447" y="205" font-size="9.5" fill="#3c3489" text-anchor="middle">merge as v2</text>
<path d="M 493.0 192.8 L 539.9 192.1 L 540.3 209.5 L 490.5 210.3 Z" fill="#ece7f7" stroke="#6b4fbb" stroke-width="1.2" stroke-linejoin="round"/>
<text x="516" y="205" font-size="9.5" fill="#3c3489" text-anchor="middle">reject</text>
<path d="M 329.2 230.6 L 615.5 229.8 L 615.4 301.6 L 331.5 299.6 Z" fill="none" stroke="#5b5b56" stroke-width="1.3" stroke-linejoin="round" stroke-dasharray="5 4"/>
<text x="342" y="250" font-size="9.5" fill="#3c3c38" text-anchor="start">Schulungspaket  ·  new</text>
<path d="M 341.1 261.0 L 487.8 262.4" stroke="#c3c2ba" stroke-width="2" fill="none" stroke-linecap="round"/>
<path d="M 343.1 270.9 L 551.8 272.0" stroke="#c3c2ba" stroke-width="2" fill="none" stroke-linecap="round"/>
<path d="M 328.7 312.5 L 615.3 312.9 L 614.8 365.9 L 329.0 366.9 Z" fill="none" stroke="#5b5b56" stroke-width="1.3" stroke-linejoin="round" stroke-dasharray="5 4"/>
<text x="342" y="332" font-size="9" fill="#8a8a84" text-anchor="start">unassigned: Anschreiben (skipped)</text>
</svg>