<svg xmlns="http://www.w3.org/2000/svg" viewBox="0 0 640 400" font-family="system-ui,-apple-system,sans-serif">
<rect width="640" height="400" fill="#fdfdfb"/>
<path d="M 5.1 7.5 L 632.8 6.7 L 632.7 393.2 L 7.6 393.1 Z" fill="none" stroke="#5b5b56" stroke-width="1.6" stroke-linejoin="round"/>
<path d="M 6.5 5.9 L 633.9 6.0 L 633.0 39.1 L 4.7 37.1 Z" fill="#f3f2ec" stroke="#5b5b56" stroke-width="1.3" stroke-linejoin="round"/>
<text x="20" y="27" font-size="12" fill="#3c3c38" text-anchor="start" font-weight="600">TenderTrace</text>
<text x="120" y="27" font-size="11" fill="#6b6b64" text-anchor="start">/  Drift inbox</text>
<path d="M 574.5 12.3 L 621.7 14.3 L 621.6 29.8 L 575.2 32.6 Z" fill="#eef0ea" stroke="#5b5b56" stroke-width="1.3" stroke-linejoin="round"/>
<text x="599" y="26" font-size="9" fill="#6b6b64" text-anchor="middle">user</text>
<path d="M 22.6 48.4 L 66.0 48.5 L 65.9 63.6 L 24.0 63.5 Z" fill="#faeeda" stroke="#9a9a92" stroke-width="1" stroke-linejoin="round"/>
<text x="29" y="59" font-size="9" fill="#854f0b" text-anchor="start">open 4</text>
<path d="M 81.3 48.3 L 142.9 46.6 L 145.4 63.0 L 79.0 64.4 Z" fill="#eef0ea" stroke="#9a9a92" stroke-width="1" stroke-linejoin="round"/>
<text x="85" y="59" font-size="9" fill="#55554f" text-anchor="start">decided 37</text>
<path d="M 24.3 72.7 L 615.2 71.3 L 613.5 263.2 L 22.8 262.8 Z" fill="#ffffff" stroke="#5b5b56" stroke-width="1.3" stroke-linejoin="round"/>
<text x="36" y="92" font-size="10" fill="#3c3c38" text-anchor="start" font-weight="600">REQ-047  ·  MODIFICATION  ·  requested</text>
<path d="M 398.7 80.6 L 480.8 81.4 L 481.3 95.0 L 399.0 93.9 Z" fill="#fcebeb" stroke="#9a9a92" stroke-width="1" stroke-linejoin="round"/>
<text x="405" y="91" font-size="9" fill="#a32d2d" text-anchor="start">likely_change</text>
<text x="36" y="114" font-size="8.5" fill="#8a8a84" text-anchor="start">before  (v1.2)</text>
<path d="M 36.1 120.0 L 594.6 121.3 L 596.0 140.6 L 35.1 139.2 Z" fill="#fcebeb" stroke="#5b5b56" stroke-width="1.3" stroke-linejoin="round"/>
<text x="42" y="134" font-size="9" fill="#3c3c38" text-anchor="start">… muss … als PDF-Dokument bereitstellen.</text>
<text x="36" y="158" font-size="8.5" fill="#8a8a84" text-anchor="start">after</text>
<path d="M 34.4 163.5 L 595.3 163.8 L 595.6 185.1 L 37.3 183.0 Z" fill="#e1f5ee" stroke="#5b5b56" stroke-width="1.3" stroke-linejoin="round"/>
<text x="42" y="178" font-size="9" fill="#3c3c38" text-anchor="start">… muss … als PDF-, CSV- oder XML-Dokument bereitstellen.</text>
<path d="M 35.7 192.9 L 596.5 195.5 L 595.0 224.9 L 35.4 222.4 Z" fill="none" stroke="#5b5b56" stroke-width="1.3" stroke-linejoin="round" stroke-dasharray="5 4"/>
<text x="42" y="213" font-size="8.5" fill="#6b6b64" text-anchor="start">&quot;Herr Weber wünscht zusätzlich einen Export nach CSV und XML…&quot;  ·  Protokoll 14.09.2026</text>
<path d="M 36.8 231.5 L 135.9 231.8 L 136.1 250.7 L 35.8 250.7 Z" fill="#ece7f7" stroke="#6b4fbb" stroke-width="1.2" stroke-linejoin="round"/>
<text x="86" y="245" font-size="9.5" fill="#3c3489" text-anchor="middle">accept in-scope</text>
<path d="M 140.3 231.3 L 280.3 230.7 L 280.3 251.1 L 139.6 252.0 Z" fill="#ece7f7" stroke="#6b4fbb" stroke-width="1.2" stroke-linejoin="round"/>
<text x="211" y="245" font-size="9.5" fill="#3c3489" text-anchor="middle">accept as change order</text>
<path d="M 288.0 232.7 L 396.3 230.6 L 393.3 249.8 L 287.6 251.2 Z" fill="#ece7f7" stroke="#6b4fbb" stroke-width="1.2" stroke-linejoin="round"/>
<text x="341" y="245" font-size="9.5" fill="#3c3489" text-anchor="middle">reject / clarify</text>
<path d="M 24.8 275.5 L 615.5 274.4 L 615.1 319.1 L 25.2 318.5 Z" fill="none" stroke="#5b5b56" stroke-width="1.3" stroke-linejoin="round" stroke-dasharray="5 4"/>
<text x="36" y="296" font-size="9.5" fill="#a32d2d" text-anchor="start" font-weight="600">REQ-102  ·  CONFLICT  ·  blocks approval</text>
<path d="M 36.8 307.6 L 410.7 305.0" stroke="#c3c2ba" stroke-width="2" fill="none" stroke-linecap="round"/>
<path d="M 25.5 329.8 L 612.7 330.3 L 614.0 369.9 L 22.9 368.8 Z" fill="none" stroke="#5b5b56" stroke-width="1.3" stroke-linejoin="round" stroke-dasharray="5 4"/>
<text x="36" y="350" font-size="9.5" fill="#3c3c38" text-anchor="start">NEW_REQUIREMENT  ·  from email 02.10.2026</text>
</svg>