<svg xmlns="http://www.w3.org/2000/svg" viewBox="0 0 640 400" font-family="system-ui,-apple-system,sans-serif">
<rect width="640" height="400" fill="#fdfdfb"/>
<path d="M 5.9 5.6 L 632.8 7.2 L 632.4 394.0 L 7.3 392.7 Z" fill="none" stroke="#5b5b56" stroke-width="1.6" stroke-linejoin="round"/>
<path d="M 6.2 6.4 L 632.5 5.6 L 634.7 37.8 L 6.7 36.9 Z" fill="#f3f2ec" stroke="#5b5b56" stroke-width="1.3" stroke-linejoin="round"/>
<text x="20" y="27" font-size="12" fill="#3c3c38" text-anchor="start" font-weight="600">TenderTrace</text>
<text x="120" y="27" font-size="11" fill="#6b6b64" text-anchor="start">/  Requirement thread — REQ-047</text>
<path d="M 575.2 11.8 L 622.0 14.4 L 622.3 31.9 L 575.6 31.8 Z" fill="#eef0ea" stroke="#5b5b56" stroke-width="1.3" stroke-linejoin="round"/>
<text x="599" y="26" font-size="9" fill="#6b6b64" text-anchor="middle">user</text>
<path d="M 58.7 59.3 L 60.6 366.7" stroke="#6b4fbb" stroke-width="1.6" fill="none" stroke-linecap="round"/>
<circle cx="60" cy="60" r="5" fill="#6b4fbb"/>
<path d="M 79.7 42.7 L 579.3 43.1 L 579.3 85.0 L 79.0 85.2 Z" fill="#eef0ea" stroke="#5b5b56" stroke-width="1.3" stroke-linejoin="round"/>
<text x="90" y="59" font-size="9.5" fill="#3c3c38" text-anchor="start" font-weight="600">Tender clause 4.2.1</text>
<text x="90" y="74" font-size="8.5" fill="#55554f" text-anchor="start">&quot;Berichte sind als PDF bereitzustellen.&quot;</text>
<circle cx="60" cy="114" r="5" fill="#6b4fbb"/>
<path d="M 81.2 96.6 L 579.6 98.0 L 578.5 137.8 L 81.3 136.8 Z" fill="#ece7f7" stroke="#5b5b56" stroke-width="1.3" stroke-linejoin="round"/>
<text x="90" y="113" font-size="9.5" fill="#3c3c38" text-anchor="start" font-weight="600">v1.0  baseline</text>
<text x="90" y="128" font-size="8.5" fill="#55554f" text-anchor="start">…als PDF-Dokument bereitstellen.</text>
<circle cx="60" cy="168" r="5" fill="#6b4fbb"/>
<path d="M 80.3 150.8 L 580.3 153.3 L 579.0 190.4 L 78.7 192.1 Z" fill="#faeeda" stroke="#5b5b56" stroke-width="1.3" stroke-linejoin="round"/>
<text x="90" y="167" font-size="9.5" fill="#3c3c38" text-anchor="start" font-weight="600">v1.3  diff  ·  Nachtrag  ·  14.09.2026</text>
<text x="90" y="182" font-size="8.5" fill="#55554f" text-anchor="start">+ CSV, XML  ·  claim item CL-3</text>
<circle cx="60" cy="222" r="5" fill="#6b4fbb"/>
<path d="M 78.5 204.7 L 580.0 207.3 L 579.7 245.7 L 80.4 244.7 Z" fill="#ece7f7" stroke="#5b5b56" stroke-width="1.3" stroke-linejoin="round"/>
<text x="90" y="221" font-size="9.5" fill="#3c3c38" text-anchor="start" font-weight="600">current v1.3</text>
<text x="90" y="236" font-size="8.5" fill="#55554f" text-anchor="start">PDF-, CSV- oder XML-Dokument</text>
<circle cx="60" cy="276" r="5" fill="#6b4fbb"/>
<path d="M 80.3 259.0 L 580.3 261.5 L 578.6 300.2 L 80.3 298.9 Z" fill="#e6f1fb" stroke="#5b5b56" stroke-width="1.3" stroke-linejoin="round"/>
<text x="90" y="275" font-size="9.5" fill="#3c3c38" text-anchor="start" font-weight="600">issues</text>
<text x="90" y="290" font-size="8.5" fill="#55554f" text-anchor="start">PORTAL-231 done  ·  PORTAL-310 in progress  ·  stale cleared</text>
<circle cx="60" cy="330" r="5" fill="#6b4fbb"/>
<path d="M 79.3 315.6 L 581.6 312.8 L 580.7 343.4 L 79.2 342.4 Z" fill="#eef0ea" stroke="#5b5b56" stroke-width="1.3" stroke-linejoin="round"/>
<text x="90" y="329" font-size="9.5" fill="#3c3c38" text-anchor="start" font-weight="600">status: in_progress   ·   acceptance: pending</text>
</svg>