<svg xmlns="http://www.w3.org/2000/svg" viewBox="0 0 640 400" font-family="system-ui,-apple-system,sans-serif">
<rect width="640" height="400" fill="#fdfdfb"/>
<path d="M 6.2 5.8 L 634.2 5.1 L 635.0 395.0 L 6.5 392.9 Z" fill="none" stroke="#5b5b56" stroke-width="1.6" stroke-linejoin="round"/>
<path d="M 6.1 5.4 L 633.2 7.4 L 635.6 36.5 L 7.2 38.3 Z" fill="#f3f2ec" stroke="#5b5b56" stroke-width="1.3" stroke-linejoin="round"/>
<text x="20" y="27" font-size="12" fill="#3c3c38" text-anchor="start" font-weight="600">TenderTrace</text>
<text x="120" y="27" font-size="11" fill="#6b6b64" text-anchor="start">/  Link review &amp; shadow scope</text>
<path d="M 575.6 12.3 L 622.6 12.9 L 622.6 31.5 L 574.8 31.9 Z" fill="#eef0ea" stroke="#5b5b56" stroke-width="1.3" stroke-linejoin="round"/>
<text x="599" y="26" font-size="9" fill="#6b6b64" text-anchor="middle">user</text>
<path d="M 25.5 53.5 L 614.4 50.5 L 612.4 170.8 L 25.4 171.4 Z" fill="#ffffff" stroke="#5b5b56" stroke-width="1.3" stroke-linejoin="round"/>
<path d="M 35.6 67.3 L 255.4 66.2 L 255.8 144.6 L 36.3 147.1 Z" fill="none" stroke="#5b5b56" stroke-width="1.3" stroke-linejoin="round"/>
<text x="46" y="84" font-size="9.5" fill="#3c3c38" text-anchor="start" font-weight="600">PORTAL-231</text>
<path d="M 45.1 95.7 L 160.9 96.0" stroke="#c3c2ba" stroke-width="2" fill="none" stroke-linecap="round"/>
<path d="M 46.5 105.1 L 213.8 103.9" stroke="#c3c2ba" stroke-width="2" fill="none" stroke-linecap="round"/>
<path d="M 45.6 114.3 L 192.4 114.9" stroke="#c3c2ba" stroke-width="2" fill="none" stroke-linecap="round"/>
<path d="M 264.7 104.9 L 331.0 107.4" stroke="#6b4fbb" stroke-width="1.6" fill="none" stroke-linecap="round"/>
<text x="298" y="98" font-size="8.5" fill="#3c3489" text-anchor="middle">implements</text>
<path d="M 339.8 65.7 L 559.2 65.3 L 560.4 145.0 L 338.8 145.9 Z" fill="none" stroke="#5b5b56" stroke-width="1.3" stroke-linejoin="round"/>
<text x="350" y="84" font-size="9.5" fill="#3c3c38" text-anchor="start" font-weight="600">REQ-047  v1.3</text>
<path d="M 350.5 97.0 L 467.9 95.9" stroke="#c3c2ba" stroke-width="2" fill="none" stroke-linecap="round"/>
<path d="M 349.8 103.4 L 481.6 104.5" stroke="#c3c2ba" stroke-width="2" fill="none" stroke-linecap="round"/>
<path d="M 348.7 113.8 L 479.0 113.6" stroke="#c3c2ba" stroke-width="2" fill="none" stroke-linecap="round"/>
<text x="36" y="162" font-size="8.5" fill="#8a8a84" text-anchor="start">confidence</text>
<path d="M 97.2 152.6 L 215.2 152.1 L 217.3 162.1 L 96.3 160.6 Z" fill="none" stroke="#5b5b56" stroke-width="1.3" stroke-linejoin="round"/>
<path d="M 96.0 151.9 L 191.7 151.7 L 192.3 162.1 L 96.0 160.9 Z" fill="#ece7f7" stroke="#5b5b56" stroke-width="1.3" stroke-linejoin="round"/>
<path d="M 419.8 147.5 L 474.3 144.5 L 473.0 165.1 L 418.6 163.7 Z" fill="#ece7f7" stroke="#6b4fbb" stroke-width="1.2" stroke-linejoin="round"/>
<text x="447" y="159" font-size="9.5" fill="#3c3489" text-anchor="middle">approve</text>
<path d="M 484.7 145.9 L 536.4 146.0 L 534.7 164.8 L 486.0 164.8 Z" fill="#ece7f7" stroke="#6b4fbb" stroke-width="1.2" stroke-linejoin="round"/>
<text x="510" y="159" font-size="9.5" fill="#3c3489" text-anchor="middle">reject</text>
<path d="M 542.7 147.3 L 608.8 145.8 L 608.7 166.3 L 540.9 164.2 Z" fill="#ece7f7" stroke="#6b4fbb" stroke-width="1.2" stroke-linejoin="round"/>
<text x="575" y="159" font-size="9.5" fill="#3c3489" text-anchor="middle">re-assign</text>
<path d="M 24.4 190.6 L 614.5 190.3 L 615.1 309.9 L 25.0 311.5 Z" fill="none" stroke="#5b5b56" stroke-width="1.3" stroke-linejoin="round" stroke-dasharray="5 4"/>
<text x="36" y="210" font-size="9.5" fill="#a32d2d" text-anchor="start" font-weight="600">PORTAL-310  ·  shadow scope: undocumented_scope_candidate</text>
<path d="M 35.8 221.1 L 596.7 221.2 L 594.5 251.3 L 36.9 251.5 Z" fill="none" stroke="#5b5b56" stroke-width="1.3" stroke-linejoin="round" stroke-dasharray="5 4"/>
<text x="42" y="239" font-size="8.5" fill="#6b6b64" text-anchor="start">&quot;Kunde hat das am Dienstag gewünscht&quot; — comment, J. Maier, 02.10.2026</text>
<path d="M 37.5 261.3 L 114.3 260.9 L 114.1 282.3 L 35.0 280.5 Z" fill="#ece7f7" stroke="#6b4fbb" stroke-width="1.2" stroke-linejoin="round"/>
<text x="75" y="275" font-size="9.5" fill="#3c3489" text-anchor="middle">link to REQ</text>
<path d="M 120.7 261.0 L 210.5 260.7 L 213.0 282.2 L 121.9 281.8 Z" fill="#ece7f7" stroke="#6b4fbb" stroke-width="1.2" stroke-linejoin="round"/>
<text x="167" y="275" font-size="9.5" fill="#3c3489" text-anchor="middle">mark internal</text>
<path d="M 216.6 262.1 L 328.4 262.5 L 328.8 280.3 L 215.6 281.4 Z" fill="#ece7f7" stroke="#6b4fbb" stroke-width="1.2" stroke-linejoin="round"/>
<text x="272" y="275" font-size="9.5" fill="#3c3489" text-anchor="middle">escalate to drift</text>
<path d="M 24.4 325.1 L 614.4 327.2 L 615.2 368.5 L 22.6 367.8 Z" fill="none" stroke="#5b5b56" stroke-width="1.3" stroke-linejoin="round" stroke-dasharray="5 4"/>
<text x="36" y="346" font-size="9" fill="#3c3c38" text-anchor="start">stale notice: REQ-047 v1.3 → draft comment for PORTAL-231</text>
<path d="M 428.7 334.6 L 512.8 335.9 L 514.4 355.4 L 429.3 355.6 Z" fill="#ece7f7" stroke="#6b4fbb" stroke-width="1.2" stroke-linejoin="round"/>
<text x="472" y="349" font-size="9.5" fill="#3c3489" text-anchor="middle">post comment</text>
</svg>