<svg xmlns="http://www.w3.org/2000/svg" viewBox="0 0 640 400" font-family="system-ui,-apple-system,sans-serif">
<rect width="640" height="400" fill="#fdfdfb"/>
<path d="M 5.8 6.2 L 635.4 5.9 L 634.0 394.3 L 5.0 394.0 Z" fill="none" stroke="#5b5b56" stroke-width="1.6" stroke-linejoin="round"/>
<path d="M 6.4 6.9 L 632.7 5.4 L 632.7 39.0 L 6.6 36.5 Z" fill="#f3f2ec" stroke="#5b5b56" stroke-width="1.3" stroke-linejoin="round"/>
<text x="20" y="27" font-size="12" fill="#3c3c38" text-anchor="start" font-weight="600">TenderTrace</text>
<text x="120" y="27" font-size="11" fill="#6b6b64" text-anchor="start">/  Deviation report</text>
<path d="M 577.5 14.5 L 622.5 13.4 L 620.9 29.4 L 576.1 29.6 Z" fill="#eef0ea" stroke="#5b5b56" stroke-width="1.3" stroke-linejoin="round"/>
<text x="599" y="26" font-size="9" fill="#6b6b64" text-anchor="middle">user</text>
<path d="M 23.0 47.2 L 135.1 47.9 L 136.4 64.1 L 24.1 63.4 Z" fill="#ece7f7" stroke="#9a9a92" stroke-width="1" stroke-linejoin="round"/>
<text x="29" y="59" font-size="9" fill="#3c3489" text-anchor="start">since baseline v1.0</text>
<path d="M 150.0 48.5 L 219.3 47.3 L 221.0 64.6 L 151.1 63.7 Z" fill="#eef0ea" stroke="#9a9a92" stroke-width="1" stroke-linejoin="round"/>
<text x="155" y="59" font-size="9" fill="#55554f" text-anchor="start">filter: all</text>
<path d="M 499.4 43.1 L 559.7 42.6 L 561.3 62.7 L 501.1 62.6 Z" fill="#ece7f7" stroke="#6b4fbb" stroke-width="1.2" stroke-linejoin="round"/>
<text x="530" y="57" font-size="9.5" fill="#3c3489" text-anchor="middle">generate</text>
<path d="M 571.5 45.1 L 617.2 43.1 L 620.1 62.9 L 571.5 62.7 Z" fill="#ece7f7" stroke="#6b4fbb" stroke-width="1.2" stroke-linejoin="round"/>
<text x="594" y="57" font-size="9.5" fill="#3c3489" text-anchor="middle">export</text>
<path d="M 22.6 76.4 L 114.9 75.3 L 112.7 123.5 L 25.5 124.8 Z" fill="#ffffff" stroke="#5b5b56" stroke-width="1.3" stroke-linejoin="round"/>
<text x="34" y="96" font-size="15" fill="#3c3c38" text-anchor="start" font-weight="600">23</text>
<text x="34" y="112" font-size="8.5" fill="#6b6b64" text-anchor="start">changed</text>
<path d="M 121.8 75.2 L 211.7 74.6 L 214.0 123.0 L 123.2 123.8 Z" fill="#ffffff" stroke="#5b5b56" stroke-width="1.3" stroke-linejoin="round"/>
<text x="133" y="96" font-size="15" fill="#3c3c38" text-anchor="start" font-weight="600">9</text>
<text x="133" y="112" font-size="8.5" fill="#6b6b64" text-anchor="start">Nachtrag</text>
<path d="M 221.0 76.7 L 310.8 76.5 L 310.8 123.7 L 221.1 123.3 Z" fill="#ffffff" stroke="#5b5b56" stroke-width="1.3" stroke-linejoin="round"/>
<text x="232" y="96" font-size="15" fill="#3c3c38" text-anchor="start" font-weight="600">6</text>
<text x="232" y="112" font-size="8.5" fill="#6b6b64" text-anchor="start">new</text>
<path d="M 322.5 77.0 L 410.4 77.2 L 410.1 123.7 L 322.1 124.5 Z" fill="#ffffff" stroke="#5b5b56" stroke-width="1.3" stroke-linejoin="round"/>
<text x="331" y="96" font-size="15" fill="#3c3c38" text-anchor="start" font-weight="600">3</text>
<text x="331" y="112" font-size="8.5" fill="#6b6b64" text-anchor="start">pending</text>
<path d="M 418.7 77.6 L 509.1 75.2 L 510.9 123.5 L 419.3 122.6 Z" fill="#ffffff" stroke="#5b5b56" stroke-width="1.3" stroke-linejoin="round"/>
<text x="430" y="96" font-size="15" fill="#3c3c38" text-anchor="start" font-weight="600">1</text>
<text x="430" y="112" font-size="8.5" fill="#6b6b64" text-anchor="start">conflicts</text>
<path d="M 517.7 76.3 L 608.2 76.3 L 608.6 123.9 L 520.5 123.9 Z" fill="#ffffff" stroke="#5b5b56" stroke-width="1.3" stroke-linejoin="round"/>
<text x="529" y="96" font-size="15" fill="#3c3c38" text-anchor="start" font-weight="600">2</text>
<text x="529" y="112" font-size="8.5" fill="#6b6b64" text-anchor="start">shadow</text>
<text x="24" y="148" font-size="10" fill="#3c3c38" text-anchor="start" font-weight="600">Executive summary</text>
<path d="M 24.2 157.2 L 613.0 154.9 L 615.3 207.0 L 23.2 205.0 Z" fill="#ffffff" stroke="#5b5b56" stroke-width="1.3" stroke-linejoin="round"/>
<path d="M 35.4 171.0 L 509.1 173.2" stroke="#c3c2ba" stroke-width="2" fill="none" stroke-linecap="round"/>
<path d="M 33.7 179.7 L 475.7 182.5" stroke="#c3c2ba" stroke-width="2" fill="none" stroke-linecap="round"/>
<path d="M 34.7 189.2 L 396.4 190.3" stroke="#c3c2ba" stroke-width="2" fill="none" stroke-linecap="round"/>
<text x="24" y="228" font-size="10" fill="#3c3c38" text-anchor="start" font-weight="600">Threads</text>
<path d="M 23.3 239.0 L 614.7 238.6 L 613.1 266.2 L 25.1 266.4 Z" fill="#ffffff" stroke="#5b5b56" stroke-width="1.3" stroke-linejoin="round"/>
<text x="34" y="257" font-size="9" fill="#3c3c38" text-anchor="start" font-weight="600">REQ-047</text>
<text x="110" y="257" font-size="9" fill="#55554f" text-anchor="start">export + CSV/XML · Nachtrag · in progress</text>
<path d="M 539.3 246.3 L 581.5 243.5 L 581.7 259.8 L 538.6 259.0 Z" fill="#ece7f7" stroke="#9a9a92" stroke-width="1" stroke-linejoin="round"/>
<text x="545" y="256" font-size="9" fill="#3c3489" text-anchor="start">thread</text>
<path d="M 23.6 272.2 L 612.8 271.6 L 615.3 299.5 L 24.5 298.6 Z" fill="none" stroke="#5b5b56" stroke-width="1.3" stroke-linejoin="round"/>
<text x="34" y="289" font-size="9" fill="#3c3c38" text-anchor="start" font-weight="600">REQ-051</text>
<text x="110" y="289" font-size="9" fill="#55554f" text-anchor="start">external cloud · conflict open</text>
<path d="M 540.3 275.8 L 580.9 275.5 L 583.7 292.6 L 541.5 290.5 Z" fill="#ece7f7" stroke="#9a9a92" stroke-width="1" stroke-linejoin="round"/>
<text x="545" y="288" font-size="9" fill="#3c3489" text-anchor="start">thread</text>
<path d="M 24.4 303.9 L 614.7 303.4 L 615.6 328.6 L 24.1 330.8 Z" fill="#ffffff" stroke="#5b5b56" stroke-width="1.3" stroke-linejoin="round"/>
<text x="34" y="321" font-size="9" fill="#3c3c38" text-anchor="start" font-weight="600">REQ-060</text>
<text x="110" y="321" font-size="9" fill="#55554f" text-anchor="start">10s threshold · in-scope · implemented</text>
<path d="M 541.3 309.8 L 583.1 309.9 L 583.7 323.5 L 540.6 325.3 Z" fill="#ece7f7" stroke="#9a9a92" stroke-width="1" stroke-linejoin="round"/>
<text x="545" y="320" font-size="9" fill="#3c3489" text-anchor="start">thread</text>
<path d="M 25.2 335.7 L 614.9 337.2 L 614.2 362.4 L 23.6 362.3 Z" fill="none" stroke="#5b5b56" stroke-width="1.3" stroke-linejoin="round"/>
<text x="34" y="353" font-size="9" fill="#3c3c38" text-anchor="start" font-weight="600">REQ-102</text>
<text x="110" y="353" font-size="9" fill="#55554f" text-anchor="start">unchanged · coverage gap: no issue</text>
<path d="M 540.3 339.7 L 582.8 342.6 L 583.6 356.7 L 539.6 356.8 Z" fill="#ece7f7" stroke="#9a9a92" stroke-width="1" stroke-linejoin="round"/>
<text x="545" y="352" font-size="9" fill="#3c3489" text-anchor="start">thread</text>
</svg>