<svg xmlns="http://www.w3.org/2000/svg" viewBox="0 0 640 400" font-family="system-ui,-apple-system,sans-serif">
<rect width="640" height="400" fill="#fdfdfb"/>
<path d="M 4.7 6.6 L 634.5 7.4 L 633.3 393.2 L 6.7 394.5 Z" fill="none" stroke="#5b5b56" stroke-width="1.6" stroke-linejoin="round"/>
<path d="M 5.4 6.6 L 633.7 6.9 L 632.8 37.1 L 7.3 37.5 Z" fill="#f3f2ec" stroke="#5b5b56" stroke-width="1.3" stroke-linejoin="round"/>
<text x="20" y="27" font-size="12" fill="#3c3c38" text-anchor="start" font-weight="600">TenderTrace</text>
<text x="120" y="27" font-size="11" fill="#6b6b64" text-anchor="start">/  Quick capture</text>
<path d="M 575.2 14.0 L 622.4 11.9 L 622.2 31.5 L 574.9 31.5 Z" fill="#eef0ea" stroke="#5b5b56" stroke-width="1.3" stroke-linejoin="round"/>
<text x="599" y="26" font-size="9" fill="#6b6b64" text-anchor="middle">user</text>
<text x="24" y="56" font-size="11" fill="#3c3c38" text-anchor="start" font-weight="600">Paste email</text>
<path d="M 22.8 63.5 L 612.7 63.1 L 615.5 147.7 L 25.6 147.8 Z" fill="#ffffff" stroke="#5b5b56" stroke-width="1.3" stroke-linejoin="round"/>
<path d="M 37.2 82.6 L 470.9 82.3" stroke="#c3c2ba" stroke-width="2" fill="none" stroke-linecap="round"/>
<path d="M 35.0 89.7 L 479.1 91.0" stroke="#c3c2ba" stroke-width="2" fill="none" stroke-linecap="round"/>
<path d="M 35.8 99.1 L 382.1 100.0" stroke="#c3c2ba" stroke-width="2" fill="none" stroke-linecap="round"/>
<text x="36" y="130" font-size="8.5" fill="#8a8a84" text-anchor="start">Von: weber@stadtwerke…  ·  Betreff: AW: AW: Reporting</text>
<path d="M 538.7 121.0 L 593.3 119.3 L 593.1 139.8 L 538.8 139.1 Z" fill="#ece7f7" stroke="#6b4fbb" stroke-width="1.2" stroke-linejoin="round"/>
<text x="567" y="133" font-size="9.5" fill="#3c3489" text-anchor="middle">capture</text>
<text x="24" y="172" font-size="10" fill="#3c3c38" text-anchor="start" font-weight="600">Detected statements</text>
<path d="M 22.7 179.9 L 304.6 180.1 L 303.9 366.0 L 23.8 366.3 Z" fill="#ffffff" stroke="#5b5b56" stroke-width="1.3" stroke-linejoin="round"/>
<text x="36" y="198" font-size="9" fill="#3c3c38" text-anchor="start">&#x27;bis Ende Oktober…&#x27;</text>
<path d="M 34.7 203.9 L 115.4 205.2 L 117.6 217.6 L 34.9 219.7 Z" fill="#faeeda" stroke="#9a9a92" stroke-width="1" stroke-linejoin="round"/>
<text x="41" y="215" font-size="9" fill="#854f0b" text-anchor="start">MODIFICATION?</text>
<text x="36" y="252" font-size="9" fill="#3c3c38" text-anchor="start">&#x27;Export läuft im Test&#x27;</text>
<path d="M 36.2 256.5 L 89.9 259.4 L 89.0 272.5 L 36.2 274.4 Z" fill="#e6f1fb" stroke="#9a9a92" stroke-width="1" stroke-linejoin="round"/>
<text x="41" y="269" font-size="9" fill="#185fa5" text-anchor="start">PROGRESS</text>
<text x="36" y="306" font-size="9" fill="#3c3c38" text-anchor="start">&#x27;REQ-060 passt so&#x27;</text>
<path d="M 35.2 311.4 L 99.0 312.4 L 99.9 326.2 L 35.6 325.5 Z" fill="#e1f5ee" stroke="#9a9a92" stroke-width="1" stroke-linejoin="round"/>
<text x="41" y="323" font-size="9" fill="#0f6e56" text-anchor="start">ACCEPTANCE</text>
<text x="330" y="172" font-size="10" fill="#3c3c38" text-anchor="start" font-weight="600">Clarifying questions (2)</text>
<path d="M 329.4 181.5 L 614.3 179.3 L 615.4 279.5 L 329.2 278.5 Z" fill="#ffffff" stroke="#5b5b56" stroke-width="1.3" stroke-linejoin="round"/>
<text x="342" y="198" font-size="9" fill="#3c3c38" text-anchor="start">Ist &#x27;bis Ende Oktober&#x27; vereinbart</text>
<text x="342" y="210" font-size="9" fill="#3c3c38" text-anchor="start">oder ein Wunsch?</text>
<path d="M 340.9 219.0 L 413.1 221.2 L 413.2 238.2 L 342.3 240.3 Z" fill="#ece7f7" stroke="#6b4fbb" stroke-width="1.2" stroke-linejoin="round"/>
<text x="378" y="233" font-size="9.5" fill="#3c3489" text-anchor="middle">vereinbart</text>
<path d="M 415.3 220.8 L 464.4 220.2 L 465.1 240.4 L 416.8 239.0 Z" fill="#ece7f7" stroke="#6b4fbb" stroke-width="1.2" stroke-linejoin="round"/>
<text x="440" y="233" font-size="9.5" fill="#3c3489" text-anchor="middle">Wunsch</text>
<path d="M 479.1 219.6 L 526.4 221.5 L 526.9 239.9 L 477.4 240.3 Z" fill="#ece7f7" stroke="#6b4fbb" stroke-width="1.2" stroke-linejoin="round"/>
<text x="502" y="233" font-size="9.5" fill="#3c3489" text-anchor="middle">unklar</text>
<text x="342" y="258" font-size="9" fill="#3c3c38" text-anchor="start">Von wem stammt die unterste Nachricht?</text>
<path d="M 342.4 263.2 L 543.4 263.9 L 541.5 279.2 L 340.7 279.0 Z" fill="#ffffff" stroke="#5b5b56" stroke-width="1.3" stroke-linejoin="round"/>
<text x="348" y="276" font-size="8.5" fill="#8a8a84" text-anchor="start">Fr. Kern, Stadtwerke</text>
<text x="552" y="276" font-size="8.5" fill="#8a8a84" text-anchor="start">skip</text>
<path d="M 330.6 290.9 L 613.2 291.8 L 614.1 365.6 L 330.9 365.2 Z" fill="none" stroke="#5b5b56" stroke-width="1.3" stroke-linejoin="round" stroke-dasharray="5 4"/>
<text x="342" y="312" font-size="9.5" fill="#3c3c38" text-anchor="start" font-weight="600">→ 2 proposals created</text>
<path d="M 341.6 321.8 L 458.8 321.1 L 458.9 337.7 L 340.9 337.5 Z" fill="#ece7f7" stroke="#9a9a92" stroke-width="1" stroke-linejoin="round"/>
<text x="347" y="333" font-size="9" fill="#3c3489" text-anchor="start">P-0912 · Drift Inbox</text>
<path d="M 341.1 344.5 L 482.1 343.5 L 483.0 359.5 L 342.2 357.5 Z" fill="#e1f5ee" stroke="#9a9a92" stroke-width="1" stroke-linejoin="round"/>
<text x="347" y="355" font-size="9" fill="#0f6e56" text-anchor="start">P-0913 · Abnahme REQ-060</text>
</svg>