<?xml version="1.0" encoding="UTF-8"?>
<svg xmlns="http://www.w3.org/2000/svg" viewBox="0 0 1400 900" font-family="Segoe UI, Arial, sans-serif">
  <rect width="1400" height="900" fill="#ffffff"/>

  <defs>
    <marker id="arrow" viewBox="0 0 10 10" refX="9" refY="5" markerWidth="7" markerHeight="7" orient="auto">
      <path d="M 0 0 L 10 5 L 0 10 z" fill="#444"/>
    </marker>
    <marker id="arrow-green" viewBox="0 0 10 10" refX="9" refY="5" markerWidth="7" markerHeight="7" orient="auto">
      <path d="M 0 0 L 10 5 L 0 10 z" fill="#2e7d32"/>
    </marker>
    <marker id="arrow-red" viewBox="0 0 10 10" refX="9" refY="5" markerWidth="7" markerHeight="7" orient="auto">
      <path d="M 0 0 L 10 5 L 0 10 z" fill="#c62828"/>
    </marker>
    <marker id="arrow-orange" viewBox="0 0 10 10" refX="9" refY="5" markerWidth="7" markerHeight="7" orient="auto">
      <path d="M 0 0 L 10 5 L 0 10 z" fill="#ef6c00"/>
    </marker>
    <marker id="arrow-gray" viewBox="0 0 10 10" refX="9" refY="5" markerWidth="7" markerHeight="7" orient="auto">
      <path d="M 0 0 L 10 5 L 0 10 z" fill="#888"/>
    </marker>
  </defs>

  <text x="700" y="40" text-anchor="middle" font-size="24" font-weight="700" fill="#222">Hypothesis Workflow</text>
  <text x="700" y="65" text-anchor="middle" font-size="13" fill="#666">From "I have a hunch" to a settled decision</text>

  <!-- Legend -->
  <g transform="translate(40, 90)">
    <rect x="0" y="0" width="170" height="110" fill="#fafafa" stroke="#ddd" rx="6"/>
    <text x="10" y="20" font-size="12" font-weight="600" fill="#333">Legend</text>
    <rect x="10" y="30" width="14" height="14" fill="#e3f2fd" stroke="#1976d2"/>
    <text x="32" y="42" font-size="11" fill="#333">Working state</text>
    <rect x="10" y="50" width="14" height="14" fill="#c8e6c9" stroke="#2e7d32"/>
    <text x="32" y="62" font-size="11" fill="#333">Final (good)</text>
    <rect x="10" y="70" width="14" height="14" fill="#ffcdd2" stroke="#c62828"/>
    <text x="32" y="82" font-size="11" fill="#333">Final (refuted)</text>
    <rect x="10" y="90" width="14" height="14" fill="#e0e0e0" stroke="#666"/>
    <text x="32" y="102" font-size="11" fill="#333">Final (other)</text>
  </g>

  <!-- Happy path row: Proposed -> Sharpened -> Under test -->
  <!-- Proposed -->
  <g>
    <rect x="80" y="260" width="180" height="80" rx="10" fill="#e3f2fd" stroke="#1976d2" stroke-width="2"/>
    <text x="170" y="290" text-anchor="middle" font-size="16" font-weight="700" fill="#0d47a1">Proposed</text>
    <text x="170" y="310" text-anchor="middle" font-size="11" fill="#333">Claim stated.</text>
    <text x="170" y="325" text-anchor="middle" font-size="11" fill="#333">Define proof/disproof criteria.</text>
  </g>

  <!-- Sharpened -->
  <g>
    <rect x="360" y="260" width="180" height="80" rx="10" fill="#e3f2fd" stroke="#1976d2" stroke-width="2"/>
    <text x="450" y="290" text-anchor="middle" font-size="16" font-weight="700" fill="#0d47a1">Sharpened</text>
    <text x="450" y="310" text-anchor="middle" font-size="11" fill="#333">Criteria ready.</text>
    <text x="450" y="325" text-anchor="middle" font-size="11" fill="#333">Pick first test.</text>
  </g>

  <!-- Under test -->
  <g>
    <rect x="640" y="260" width="180" height="80" rx="10" fill="#e3f2fd" stroke="#1976d2" stroke-width="2"/>
    <text x="730" y="290" text-anchor="middle" font-size="16" font-weight="700" fill="#0d47a1">Under test</text>
    <text x="730" y="310" text-anchor="middle" font-size="11" fill="#333">Run experiments.</text>
    <text x="730" y="325" text-anchor="middle" font-size="11" fill="#333">Evidence accumulates.</text>
  </g>

  <!-- Provisional support -->
  <g>
    <rect x="920" y="170" width="200" height="80" rx="10" fill="#e3f2fd" stroke="#1976d2" stroke-width="2"/>
    <text x="1020" y="200" text-anchor="middle" font-size="15" font-weight="700" fill="#0d47a1">Provisional support</text>
    <text x="1020" y="220" text-anchor="middle" font-size="11" fill="#333">Evidence leans yes.</text>
    <text x="1020" y="235" text-anchor="middle" font-size="11" fill="#333">Not yet closed.</text>
  </g>

  <!-- Provisional refute -->
  <g>
    <rect x="920" y="350" width="200" height="80" rx="10" fill="#e3f2fd" stroke="#1976d2" stroke-width="2"/>
    <text x="1020" y="380" text-anchor="middle" font-size="15" font-weight="700" fill="#0d47a1">Provisional refutation</text>
    <text x="1020" y="400" text-anchor="middle" font-size="11" fill="#333">Evidence leans no.</text>
    <text x="1020" y="415" text-anchor="middle" font-size="11" fill="#333">Dependents flagged shaky.</text>
  </g>

  <!-- Supported (final, good) -->
  <g>
    <rect x="1190" y="170" width="170" height="80" rx="10" fill="#c8e6c9" stroke="#2e7d32" stroke-width="2.5"/>
    <text x="1275" y="200" text-anchor="middle" font-size="16" font-weight="700" fill="#1b5e20">Supported</text>
    <text x="1275" y="220" text-anchor="middle" font-size="11" fill="#333">Confirmed.</text>
    <text x="1275" y="235" text-anchor="middle" font-size="11" fill="#333">Confidence locked.</text>
  </g>

  <!-- Refuted (final, bad) -->
  <g>
    <rect x="1190" y="350" width="170" height="80" rx="10" fill="#ffcdd2" stroke="#c62828" stroke-width="2.5"/>
    <text x="1275" y="380" text-anchor="middle" font-size="16" font-weight="700" fill="#b71c1c">Refuted</text>
    <text x="1275" y="400" text-anchor="middle" font-size="11" fill="#333">Disproved.</text>
    <text x="1275" y="415" text-anchor="middle" font-size="11" fill="#333">Cascade revision triggered.</text>
  </g>

  <!-- Stalled -->
  <g>
    <rect x="640" y="500" width="180" height="80" rx="10" fill="#fff3e0" stroke="#ef6c00" stroke-width="2"/>
    <text x="730" y="530" text-anchor="middle" font-size="16" font-weight="700" fill="#e65100">Stalled</text>
    <text x="730" y="550" text-anchor="middle" font-size="11" fill="#333">No new evidence.</text>
    <text x="730" y="565" text-anchor="middle" font-size="11" fill="#333">Awaiting human decision.</text>
  </g>

  <!-- Demoted (final, other) -->
  <g>
    <rect x="360" y="700" width="180" height="80" rx="10" fill="#e0e0e0" stroke="#666" stroke-width="2.5"/>
    <text x="450" y="730" text-anchor="middle" font-size="16" font-weight="700" fill="#333">Demoted</text>
    <text x="450" y="750" text-anchor="middle" font-size="11" fill="#333">Becomes an Assumption.</text>
    <text x="450" y="765" text-anchor="middle" font-size="11" fill="#333">History preserved.</text>
  </g>

  <!-- Superseded (final, other) -->
  <g>
    <rect x="920" y="700" width="180" height="80" rx="10" fill="#e0e0e0" stroke="#666" stroke-width="2.5"/>
    <text x="1010" y="730" text-anchor="middle" font-size="16" font-weight="700" fill="#333">Superseded</text>
    <text x="1010" y="750" text-anchor="middle" font-size="11" fill="#333">Replaced by better version.</text>
    <text x="1010" y="765" text-anchor="middle" font-size="11" fill="#333">New one starts in Proposed.</text>
  </g>

  <!-- HAPPY PATH ARROWS (green) -->
  <!-- Proposed -> Sharpened -->
  <line x1="260" y1="300" x2="355" y2="300" stroke="#2e7d32" stroke-width="2.5" marker-end="url(#arrow-green)"/>
  <text x="307" y="292" text-anchor="middle" font-size="11" font-weight="600" fill="#2e7d32">SHARPEN</text>

  <!-- Sharpened -> Under test -->
  <line x1="540" y1="300" x2="635" y2="300" stroke="#2e7d32" stroke-width="2.5" marker-end="url(#arrow-green)"/>
  <text x="587" y="292" text-anchor="middle" font-size="11" font-weight="600" fill="#2e7d32">START_TEST</text>

  <!-- Under test -> Provisional support -->
  <line x1="820" y1="285" x2="915" y2="220" stroke="#2e7d32" stroke-width="2.5" marker-end="url(#arrow-green)"/>
  <text x="855" y="240" font-size="11" font-weight="600" fill="#2e7d32">PROV_SUPPORT</text>

  <!-- Under test -> Provisional refute -->
  <line x1="820" y1="315" x2="915" y2="380" stroke="#c62828" stroke-width="2.5" marker-end="url(#arrow-red)"/>
  <text x="855" y="370" font-size="11" font-weight="600" fill="#c62828">PROV_REFUTE</text>

  <!-- Prov support -> Supported -->
  <line x1="1120" y1="210" x2="1185" y2="210" stroke="#2e7d32" stroke-width="2.5" marker-end="url(#arrow-green)"/>
  <text x="1152" y="202" text-anchor="middle" font-size="10" font-weight="600" fill="#2e7d32">CONFIRM</text>

  <!-- Prov refute -> Refuted -->
  <line x1="1120" y1="390" x2="1185" y2="390" stroke="#c62828" stroke-width="2.5" marker-end="url(#arrow-red)"/>
  <text x="1152" y="382" text-anchor="middle" font-size="10" font-weight="600" fill="#c62828">CONFIRM</text>

  <!-- REOPEN arrows (orange, curved back to Under test) -->
  <path d="M 920 240 Q 850 260 825 280" fill="none" stroke="#ef6c00" stroke-width="2" stroke-dasharray="5,3" marker-end="url(#arrow-orange)"/>
  <text x="855" y="265" font-size="10" font-weight="600" fill="#ef6c00">REOPEN</text>

  <path d="M 920 360 Q 850 340 825 320" fill="none" stroke="#ef6c00" stroke-width="2" stroke-dasharray="5,3" marker-end="url(#arrow-orange)"/>
  <text x="855" y="338" font-size="10" font-weight="600" fill="#ef6c00">REOPEN</text>

  <!-- STALL arrows -->
  <!-- Under test -> Stalled -->
  <line x1="730" y1="340" x2="730" y2="495" stroke="#ef6c00" stroke-width="2" marker-end="url(#arrow-orange)"/>
  <text x="738" y="420" font-size="11" font-weight="600" fill="#ef6c00">STALL</text>

  <!-- Stalled -> Under test (RESUME) -->
  <path d="M 700 500 Q 660 420 700 345" fill="none" stroke="#ef6c00" stroke-width="2" stroke-dasharray="5,3" marker-end="url(#arrow-orange)"/>
  <text x="630" y="425" font-size="11" font-weight="600" fill="#ef6c00">RESUME</text>

  <!-- Prov support -> Stalled -->
  <path d="M 940 250 Q 880 400 770 500" fill="none" stroke="#ef6c00" stroke-width="1.5" stroke-dasharray="4,3" marker-end="url(#arrow-orange)"/>

  <!-- Prov refute -> Stalled -->
  <path d="M 940 430 Q 870 470 800 500" fill="none" stroke="#ef6c00" stroke-width="1.5" stroke-dasharray="4,3" marker-end="url(#arrow-orange)"/>

  <!-- DEMOTE arrows (gray) - from all working states to Demoted -->
  <!-- Proposed -> Demoted -->
  <path d="M 170 340 Q 170 600 370 715" fill="none" stroke="#888" stroke-width="1.5" stroke-dasharray="4,3" marker-end="url(#arrow-gray)"/>
  <text x="175" y="500" font-size="10" font-weight="600" fill="#888">DEMOTE</text>

  <!-- Sharpened -> Demoted -->
  <line x1="450" y1="340" x2="450" y2="695" stroke="#888" stroke-width="1.5" stroke-dasharray="4,3" marker-end="url(#arrow-gray)"/>

  <!-- Under test -> Demoted -->
  <path d="M 680 340 Q 580 540 500 695" fill="none" stroke="#888" stroke-width="1.5" stroke-dasharray="4,3" marker-end="url(#arrow-gray)"/>

  <!-- Stalled -> Demoted -->
  <line x1="680" y1="570" x2="540" y2="730" stroke="#888" stroke-width="1.5" stroke-dasharray="4,3" marker-end="url(#arrow-gray)"/>

  <!-- SUPERSEDE arrows (gray) -->
  <!-- Under test -> Superseded -->
  <path d="M 780 340 Q 880 530 960 695" fill="none" stroke="#888" stroke-width="1.5" stroke-dasharray="4,3" marker-end="url(#arrow-gray)"/>
  <text x="900" y="540" font-size="10" font-weight="600" fill="#888">SUPERSEDE</text>

  <!-- Prov support -> Superseded -->
  <path d="M 1030 250 Q 1080 480 1040 695" fill="none" stroke="#888" stroke-width="1.5" stroke-dasharray="4,3" marker-end="url(#arrow-gray)"/>

  <!-- Prov refute -> Superseded -->
  <path d="M 1010 430 Q 1020 560 1010 695" fill="none" stroke="#888" stroke-width="1.5" stroke-dasharray="4,3" marker-end="url(#arrow-gray)"/>

  <!-- Notes / footer -->
  <g transform="translate(40, 820)">
    <text x="0" y="0" font-size="12" font-weight="600" fill="#333">Three escape hatches from every working state:</text>
    <text x="0" y="20" font-size="11" fill="#555">• STALL = pause (waiting on a human)   • DEMOTE = give up testing, treat as assumption   • SUPERSEDE = replace with a better-worded version</text>
    <text x="0" y="40" font-size="11" fill="#555">Dashed lines = optional / fallback transitions. Solid lines = happy path.</text>
  </g>
</svg>
